solid OpenSCAD_Model
  facet normal -1 0 0
    outer loop
      vertex -18.3333 12.4 -1.5
      vertex -18.3333 10.1 0
      vertex -18.3333 12.4 3
    endloop
  endfacet
  facet normal -1 0 0
    outer loop
      vertex -18.3333 12.4 -1.5
      vertex -18.3333 -10.1 0
      vertex -18.3333 10.1 0
    endloop
  endfacet
  facet normal -1 0 0
    outer loop
      vertex -18.3333 -12.4 3
      vertex -18.3333 -10.1 0
      vertex -18.3333 -12.4 -1.5
    endloop
  endfacet
  facet normal -1 0 0
    outer loop
      vertex -18.3333 -12.4 -1.5
      vertex -18.3333 -10.1 0
      vertex -18.3333 12.4 -1.5
    endloop
  endfacet
  facet normal -1 0 0
    outer loop
      vertex -18.3333 10.1 2
      vertex -18.3333 12.4 3
      vertex -18.3333 10.1 0
    endloop
  endfacet
  facet normal -1 -0 0
    outer loop
      vertex -18.3333 12.4 3
      vertex -18.3333 10.1 2
      vertex -18.3333 9.1 3
    endloop
  endfacet
  facet normal -1 0 0
    outer loop
      vertex -18.3333 -10.1 2
      vertex -18.3333 -12.4 3
      vertex -18.3333 -9.1 3
    endloop
  endfacet
  facet normal -1 0 0
    outer loop
      vertex -18.3333 -10.1 0
      vertex -18.3333 -12.4 3
      vertex -18.3333 -10.1 2
    endloop
  endfacet
  facet normal -0 0 1
    outer loop
      vertex -7.15914 -12.4 3
      vertex 12.1192 -39.191 3
      vertex -5.25389 -9.1 3
    endloop
  endfacet
  facet normal 0 0 1
    outer loop
      vertex 12.1192 -39.191 3
      vertex -7.15914 -12.4 3
      vertex 9.26128 -40.841 3
    endloop
  endfacet
  facet normal -0 0 1
    outer loop
      vertex -18.3333 -9.1 3
      vertex -7.15914 -12.4 3
      vertex -5.25389 -9.1 3
    endloop
  endfacet
  facet normal 0 0 1
    outer loop
      vertex -7.15914 -12.4 3
      vertex -18.3333 -9.1 3
      vertex -18.3333 -12.4 3
    endloop
  endfacet
  facet normal 0 0 1
    outer loop
      vertex 36.6667 -9.1 3
      vertex 21.4774 -12.4 3
      vertex 36.6667 -12.4 3
    endloop
  endfacet
  facet normal 0 -0 1
    outer loop
      vertex 21.4774 -12.4 3
      vertex 36.6667 -9.1 3
      vertex 15.7617 -9.1 3
    endloop
  endfacet
  facet normal 0 0 1
    outer loop
      vertex 21.4774 -12.4 3
      vertex 27.8808 -30.091 3
      vertex 30.7387 -28.441 3
    endloop
  endfacet
  facet normal 0 0 1
    outer loop
      vertex 27.8808 -30.091 3
      vertex 21.4774 -12.4 3
      vertex 15.7617 -9.1 3
    endloop
  endfacet
  facet normal 0 0 1
    outer loop
      vertex 27.8808 30.091 3
      vertex 21.4774 12.4 3
      vertex 30.7387 28.441 3
    endloop
  endfacet
  facet normal 0 -0 1
    outer loop
      vertex 21.4774 12.4 3
      vertex 27.8808 30.091 3
      vertex 15.7617 9.1 3
    endloop
  endfacet
  facet normal -0 0 1
    outer loop
      vertex 21.4774 12.4 3
      vertex 36.6667 9.1 3
      vertex 36.6667 12.4 3
    endloop
  endfacet
  facet normal 0 0 1
    outer loop
      vertex 36.6667 9.1 3
      vertex 21.4774 12.4 3
      vertex 15.7617 9.1 3
    endloop
  endfacet
  facet normal 0 0 1
    outer loop
      vertex -7.15914 12.4 3
      vertex 12.1192 39.191 3
      vertex 9.26128 40.841 3
    endloop
  endfacet
  facet normal 0 0 1
    outer loop
      vertex 12.1192 39.191 3
      vertex -7.15914 12.4 3
      vertex -5.25389 9.1 3
    endloop
  endfacet
  facet normal 0 0 1
    outer loop
      vertex -18.3333 9.1 3
      vertex -7.15914 12.4 3
      vertex -18.3333 12.4 3
    endloop
  endfacet
  facet normal 0 0 1
    outer loop
      vertex -7.15914 12.4 3
      vertex -18.3333 9.1 3
      vertex -5.25389 9.1 3
    endloop
  endfacet
  facet normal 1 0 0
    outer loop
      vertex 36.6667 -10.1 2
      vertex 36.6667 -12.4 3
      vertex 36.6667 -10.1 0
    endloop
  endfacet
  facet normal 1 -0 0
    outer loop
      vertex 36.6667 -12.4 3
      vertex 36.6667 -10.1 2
      vertex 36.6667 -9.1 3
    endloop
  endfacet
  facet normal 1 0 0
    outer loop
      vertex 36.6667 10.1 0
      vertex 36.6667 12.4 3
      vertex 36.6667 10.1 2
    endloop
  endfacet
  facet normal 1 0 -0
    outer loop
      vertex 36.6667 10.1 2
      vertex 36.6667 12.4 3
      vertex 36.6667 9.1 3
    endloop
  endfacet
  facet normal 1 0 0
    outer loop
      vertex 36.6667 12.4 3
      vertex 36.6667 10.1 0
      vertex 36.6667 12.4 -1.5
    endloop
  endfacet
  facet normal 1 -0 0
    outer loop
      vertex 36.6667 -10.1 0
      vertex 36.6667 12.4 -1.5
      vertex 36.6667 10.1 0
    endloop
  endfacet
  facet normal 1 0 0
    outer loop
      vertex 36.6667 -10.1 0
      vertex 36.6667 -12.4 -1.5
      vertex 36.6667 12.4 -1.5
    endloop
  endfacet
  facet normal 1 0 0
    outer loop
      vertex 36.6667 -12.4 -1.5
      vertex 36.6667 -10.1 0
      vertex 36.6667 -12.4 3
    endloop
  endfacet
  facet normal 0 1 -0
    outer loop
      vertex 36.6667 12.4 -1.5
      vertex 21.4774 12.4 3
      vertex 36.6667 12.4 3
    endloop
  endfacet
  facet normal 0 1 0
    outer loop
      vertex 21.4774 12.4 3
      vertex 36.6667 12.4 -1.5
      vertex 21.4774 12.4 -1.5
    endloop
  endfacet
  facet normal 0 1 -0
    outer loop
      vertex -7.15914 12.4 -1.5
      vertex -18.3333 12.4 3
      vertex -7.15914 12.4 3
    endloop
  endfacet
  facet normal 0 1 0
    outer loop
      vertex -18.3333 12.4 3
      vertex -7.15914 12.4 -1.5
      vertex -18.3333 12.4 -1.5
    endloop
  endfacet
  facet normal 0 0 -1
    outer loop
      vertex -7.15914 -12.4 -1.5
      vertex 21.4774 -12.4 -1.5
      vertex 9.26128 -40.841 -1.5
    endloop
  endfacet
  facet normal 0 0 -1
    outer loop
      vertex 9.26128 -40.841 -1.5
      vertex 21.4774 -12.4 -1.5
      vertex 30.7387 -28.441 -1.5
    endloop
  endfacet
  facet normal 0 0 -1
    outer loop
      vertex 21.4774 -12.4 -1.5
      vertex 36.6667 12.4 -1.5
      vertex 36.6667 -12.4 -1.5
    endloop
  endfacet
  facet normal -0 0 -1
    outer loop
      vertex 36.6667 12.4 -1.5
      vertex 21.4774 -12.4 -1.5
      vertex 21.4774 12.4 -1.5
    endloop
  endfacet
  facet normal 0 0 -1
    outer loop
      vertex 21.4774 12.4 -1.5
      vertex 9.26128 40.841 -1.5
      vertex 30.7387 28.441 -1.5
    endloop
  endfacet
  facet normal 0 0 -1
    outer loop
      vertex 21.4774 -12.4 -1.5
      vertex -7.15914 -12.4 -1.5
      vertex 21.4774 12.4 -1.5
    endloop
  endfacet
  facet normal 0 0 -1
    outer loop
      vertex -7.15914 12.4 -1.5
      vertex 21.4774 12.4 -1.5
      vertex -7.15914 -12.4 -1.5
    endloop
  endfacet
  facet normal 0 0 -1
    outer loop
      vertex 21.4774 12.4 -1.5
      vertex -7.15914 12.4 -1.5
      vertex 9.26128 40.841 -1.5
    endloop
  endfacet
  facet normal 0 0 -1
    outer loop
      vertex -18.3333 -12.4 -1.5
      vertex -7.15914 12.4 -1.5
      vertex -7.15914 -12.4 -1.5
    endloop
  endfacet
  facet normal -0 0 -1
    outer loop
      vertex -7.15914 12.4 -1.5
      vertex -18.3333 -12.4 -1.5
      vertex -18.3333 12.4 -1.5
    endloop
  endfacet
  facet normal 0 -1 0
    outer loop
      vertex -18.3333 -12.4 -1.5
      vertex -7.15914 -12.4 3
      vertex -18.3333 -12.4 3
    endloop
  endfacet
  facet normal 0 -1 -0
    outer loop
      vertex -7.15914 -12.4 3
      vertex -18.3333 -12.4 -1.5
      vertex -7.15914 -12.4 -1.5
    endloop
  endfacet
  facet normal 0 -1 0
    outer loop
      vertex 21.4774 -12.4 -1.5
      vertex 36.6667 -12.4 3
      vertex 21.4774 -12.4 3
    endloop
  endfacet
  facet normal 0 -1 -0
    outer loop
      vertex 36.6667 -12.4 3
      vertex 21.4774 -12.4 -1.5
      vertex 36.6667 -12.4 -1.5
    endloop
  endfacet
  facet normal 0.5 0.866025 2.17782e-007
    outer loop
      vertex 30.7387 28.441 3
      vertex 28.7469 29.591 2
      vertex 27.8808 30.091 3
    endloop
  endfacet
  facet normal 0.5 0.866025 0
    outer loop
      vertex 30.7387 28.441 3
      vertex 28.7469 29.591 0
      vertex 28.7469 29.591 2
    endloop
  endfacet
  facet normal 0.5 0.866025 2.6059e-008
    outer loop
      vertex 28.7469 29.591 0
      vertex 30.7387 28.441 -1.5
      vertex 11.2531 39.691 0
    endloop
  endfacet
  facet normal 0.5 0.866025 -0
    outer loop
      vertex 30.7387 28.441 -1.5
      vertex 28.7469 29.591 0
      vertex 30.7387 28.441 3
    endloop
  endfacet
  facet normal 0.5 0.866026 2.82768e-007
    outer loop
      vertex 11.2531 39.691 2
      vertex 9.26128 40.841 3
      vertex 12.1192 39.191 3
    endloop
  endfacet
  facet normal 0.499999 0.866026 -0
    outer loop
      vertex 11.2531 39.691 0
      vertex 9.26128 40.841 3
      vertex 11.2531 39.691 2
    endloop
  endfacet
  facet normal 0.499999 0.866026 0
    outer loop
      vertex 11.2531 39.691 0
      vertex 9.26128 40.841 -1.5
      vertex 9.26128 40.841 3
    endloop
  endfacet
  facet normal 0.5 0.866025 -1.02031e-006
    outer loop
      vertex 9.26128 40.841 -1.5
      vertex 11.2531 39.691 0
      vertex 30.7387 28.441 -1.5
    endloop
  endfacet
  facet normal -0.866025 0.5 0
    outer loop
      vertex -7.15914 12.4 -1.5
      vertex 9.26128 40.841 3
      vertex 9.26128 40.841 -1.5
    endloop
  endfacet
  facet normal -0.866025 0.5 0
    outer loop
      vertex 9.26128 40.841 3
      vertex -7.15914 12.4 -1.5
      vertex -7.15914 12.4 3
    endloop
  endfacet
  facet normal 0.866025 -0.5 0
    outer loop
      vertex 21.4774 12.4 3
      vertex 30.7387 28.441 -1.5
      vertex 30.7387 28.441 3
    endloop
  endfacet
  facet normal 0.866025 -0.5 0
    outer loop
      vertex 30.7387 28.441 -1.5
      vertex 21.4774 12.4 3
      vertex 21.4774 12.4 -1.5
    endloop
  endfacet
  facet normal 0.5 -0.866026 2.82768e-007
    outer loop
      vertex 9.26128 -40.841 3
      vertex 11.2531 -39.691 2
      vertex 12.1192 -39.191 3
    endloop
  endfacet
  facet normal 0.499999 -0.866026 0
    outer loop
      vertex 9.26128 -40.841 3
      vertex 11.2531 -39.691 0
      vertex 11.2531 -39.691 2
    endloop
  endfacet
  facet normal 0.5 -0.866025 -1.12727e-006
    outer loop
      vertex 11.2531 -39.691 0
      vertex 9.26128 -40.841 -1.5
      vertex 28.7469 -29.591 0
    endloop
  endfacet
  facet normal 0.499999 -0.866026 0
    outer loop
      vertex 9.26128 -40.841 -1.5
      vertex 11.2531 -39.691 0
      vertex 9.26128 -40.841 3
    endloop
  endfacet
  facet normal 0.5 -0.866025 2.17782e-007
    outer loop
      vertex 28.7469 -29.591 2
      vertex 30.7387 -28.441 3
      vertex 27.8808 -30.091 3
    endloop
  endfacet
  facet normal 0.5 -0.866025 0
    outer loop
      vertex 28.7469 -29.591 0
      vertex 30.7387 -28.441 3
      vertex 28.7469 -29.591 2
    endloop
  endfacet
  facet normal 0.5 -0.866025 0
    outer loop
      vertex 28.7469 -29.591 0
      vertex 30.7387 -28.441 -1.5
      vertex 30.7387 -28.441 3
    endloop
  endfacet
  facet normal 0.5 -0.866025 -8.09026e-008
    outer loop
      vertex 30.7387 -28.441 -1.5
      vertex 28.7469 -29.591 0
      vertex 9.26128 -40.841 -1.5
    endloop
  endfacet
  facet normal -0.866025 -0.5 0
    outer loop
      vertex 9.26128 -40.841 -1.5
      vertex -7.15914 -12.4 3
      vertex -7.15914 -12.4 -1.5
    endloop
  endfacet
  facet normal -0.866025 -0.5 0
    outer loop
      vertex -7.15914 -12.4 3
      vertex 9.26128 -40.841 -1.5
      vertex 9.26128 -40.841 3
    endloop
  endfacet
  facet normal 0.866025 0.5 0
    outer loop
      vertex 30.7387 -28.441 3
      vertex 21.4774 -12.4 -1.5
      vertex 21.4774 -12.4 3
    endloop
  endfacet
  facet normal 0.866025 0.5 0
    outer loop
      vertex 21.4774 -12.4 -1.5
      vertex 30.7387 -28.441 3
      vertex 30.7387 -28.441 -1.5
    endloop
  endfacet
  facet normal 0 0.707107 -0.707107
    outer loop
      vertex -5.83124 -10.1 2
      vertex -18.3333 -9.1 3
      vertex -5.25389 -9.1 3
    endloop
  endfacet
  facet normal 0 0.707107 -0.707107
    outer loop
      vertex -18.3333 -9.1 3
      vertex -5.83124 -10.1 2
      vertex -18.3333 -10.1 2
    endloop
  endfacet
  facet normal 0 0.707107 -0.707107
    outer loop
      vertex 17.4937 -10.1 2
      vertex 36.6667 -9.1 3
      vertex 36.6667 -10.1 2
    endloop
  endfacet
  facet normal 0 0.707107 -0.707107
    outer loop
      vertex 36.6667 -9.1 3
      vertex 17.4937 -10.1 2
      vertex 15.7617 -9.1 3
    endloop
  endfacet
  facet normal 0 0 1
    outer loop
      vertex -5.83124 10.1 0
      vertex 17.4937 10.1 0
      vertex 11.2531 39.691 0
    endloop
  endfacet
  facet normal 0 0 1
    outer loop
      vertex 11.2531 39.691 0
      vertex 17.4937 10.1 0
      vertex 28.7469 29.591 0
    endloop
  endfacet
  facet normal -0 0 1
    outer loop
      vertex 17.4937 10.1 0
      vertex 36.6667 -10.1 0
      vertex 36.6667 10.1 0
    endloop
  endfacet
  facet normal 0 0 1
    outer loop
      vertex 36.6667 -10.1 0
      vertex 17.4937 10.1 0
      vertex 17.4937 -10.1 0
    endloop
  endfacet
  facet normal 0 0 1
    outer loop
      vertex 17.4937 -10.1 0
      vertex 11.2531 -39.691 0
      vertex 28.7469 -29.591 0
    endloop
  endfacet
  facet normal 0 0 1
    outer loop
      vertex 17.4937 10.1 0
      vertex -5.83124 10.1 0
      vertex 17.4937 -10.1 0
    endloop
  endfacet
  facet normal 0 0 1
    outer loop
      vertex -5.83124 -10.1 0
      vertex 17.4937 -10.1 0
      vertex -5.83124 10.1 0
    endloop
  endfacet
  facet normal 0 0 1
    outer loop
      vertex 17.4937 -10.1 0
      vertex -5.83124 -10.1 0
      vertex 11.2531 -39.691 0
    endloop
  endfacet
  facet normal -0 0 1
    outer loop
      vertex -18.3333 10.1 0
      vertex -5.83124 -10.1 0
      vertex -5.83124 10.1 0
    endloop
  endfacet
  facet normal 0 0 1
    outer loop
      vertex -5.83124 -10.1 0
      vertex -18.3333 10.1 0
      vertex -18.3333 -10.1 0
    endloop
  endfacet
  facet normal 0 1 -0
    outer loop
      vertex -5.83124 -10.1 0
      vertex -18.3333 -10.1 2
      vertex -5.83124 -10.1 2
    endloop
  endfacet
  facet normal 0 1 0
    outer loop
      vertex -18.3333 -10.1 2
      vertex -5.83124 -10.1 0
      vertex -18.3333 -10.1 0
    endloop
  endfacet
  facet normal 0 1 -0
    outer loop
      vertex 36.6667 -10.1 0
      vertex 17.4937 -10.1 2
      vertex 36.6667 -10.1 2
    endloop
  endfacet
  facet normal 0 1 0
    outer loop
      vertex 17.4937 -10.1 2
      vertex 36.6667 -10.1 0
      vertex 17.4937 -10.1 0
    endloop
  endfacet
  facet normal -0 -0.707107 -0.707107
    outer loop
      vertex -5.83124 10.1 2
      vertex -18.3333 9.1 3
      vertex -18.3333 10.1 2
    endloop
  endfacet
  facet normal 0 -0.707107 -0.707107
    outer loop
      vertex -18.3333 9.1 3
      vertex -5.83124 10.1 2
      vertex -5.25389 9.1 3
    endloop
  endfacet
  facet normal 0 -0.707107 -0.707107
    outer loop
      vertex 17.4937 10.1 2
      vertex 36.6667 9.1 3
      vertex 15.7617 9.1 3
    endloop
  endfacet
  facet normal 0 -0.707107 -0.707107
    outer loop
      vertex 36.6667 9.1 3
      vertex 17.4937 10.1 2
      vertex 36.6667 10.1 2
    endloop
  endfacet
  facet normal 0 -1 0
    outer loop
      vertex -18.3333 10.1 0
      vertex -5.83124 10.1 2
      vertex -18.3333 10.1 2
    endloop
  endfacet
  facet normal 0 -1 -0
    outer loop
      vertex -5.83124 10.1 2
      vertex -18.3333 10.1 0
      vertex -5.83124 10.1 0
    endloop
  endfacet
  facet normal 0 -1 0
    outer loop
      vertex 17.4937 10.1 0
      vertex 36.6667 10.1 2
      vertex 17.4937 10.1 2
    endloop
  endfacet
  facet normal 0 -1 -0
    outer loop
      vertex 36.6667 10.1 2
      vertex 17.4937 10.1 0
      vertex 36.6667 10.1 0
    endloop
  endfacet
  facet normal -0.612372 0.353553 -0.707107
    outer loop
      vertex 17.4937 10.1 2
      vertex 27.8808 30.091 3
      vertex 28.7469 29.591 2
    endloop
  endfacet
  facet normal -0.612372 0.353553 -0.707107
    outer loop
      vertex 27.8808 30.091 3
      vertex 17.4937 10.1 2
      vertex 15.7617 9.1 3
    endloop
  endfacet
  facet normal -0.866025 0.5 0
    outer loop
      vertex 17.4937 10.1 0
      vertex 28.7469 29.591 2
      vertex 28.7469 29.591 0
    endloop
  endfacet
  facet normal -0.866025 0.5 0
    outer loop
      vertex 28.7469 29.591 2
      vertex 17.4937 10.1 0
      vertex 17.4937 10.1 2
    endloop
  endfacet
  facet normal 0.866025 -0.5 0
    outer loop
      vertex -5.83124 10.1 2
      vertex 11.2531 39.691 0
      vertex 11.2531 39.691 2
    endloop
  endfacet
  facet normal 0.866025 -0.5 0
    outer loop
      vertex 11.2531 39.691 0
      vertex -5.83124 10.1 2
      vertex -5.83124 10.1 0
    endloop
  endfacet
  facet normal 0.612372 -0.353553 -0.707107
    outer loop
      vertex -5.83124 10.1 2
      vertex 12.1192 39.191 3
      vertex -5.25389 9.1 3
    endloop
  endfacet
  facet normal 0.612372 -0.353553 -0.707107
    outer loop
      vertex 12.1192 39.191 3
      vertex -5.83124 10.1 2
      vertex 11.2531 39.691 2
    endloop
  endfacet
  facet normal 0.612372 0.353553 -0.707107
    outer loop
      vertex -5.83124 -10.1 2
      vertex 12.1192 -39.191 3
      vertex 11.2531 -39.691 2
    endloop
  endfacet
  facet normal 0.612372 0.353553 -0.707107
    outer loop
      vertex 12.1192 -39.191 3
      vertex -5.83124 -10.1 2
      vertex -5.25389 -9.1 3
    endloop
  endfacet
  facet normal 0.866025 0.5 0
    outer loop
      vertex 11.2531 -39.691 2
      vertex -5.83124 -10.1 0
      vertex -5.83124 -10.1 2
    endloop
  endfacet
  facet normal 0.866025 0.5 0
    outer loop
      vertex -5.83124 -10.1 0
      vertex 11.2531 -39.691 2
      vertex 11.2531 -39.691 0
    endloop
  endfacet
  facet normal -0.612372 -0.353553 -0.707107
    outer loop
      vertex 27.8808 -30.091 3
      vertex 17.4937 -10.1 2
      vertex 28.7469 -29.591 2
    endloop
  endfacet
  facet normal -0.612372 -0.353553 -0.707107
    outer loop
      vertex 17.4937 -10.1 2
      vertex 27.8808 -30.091 3
      vertex 15.7617 -9.1 3
    endloop
  endfacet
  facet normal -0.866025 -0.5 0
    outer loop
      vertex 28.7469 -29.591 0
      vertex 17.4937 -10.1 2
      vertex 17.4937 -10.1 0
    endloop
  endfacet
  facet normal -0.866025 -0.5 0
    outer loop
      vertex 17.4937 -10.1 2
      vertex 28.7469 -29.591 0
      vertex 28.7469 -29.591 2
    endloop
  endfacet
endsolid OpenSCAD_Model
